<svg width="25" height="25" viewBox="0 0 25 25" fill="none" xmlns="http://www.w3.org/2000/svg">
<path fill-rule="evenodd" clip-rule="evenodd" d="M0.446289 12.5479C0.446289 19.1753 5.81887 24.5479 12.4463 24.5479C19.0737 24.5479 24.4463 19.1753 24.4463 12.5479C24.4463 5.92043 19.0737 0.547852 12.4463 0.547852C5.81887 0.547852 0.446289 5.92043 0.446289 12.5479ZM19.9776 12.088C19.976 16.0214 16.7762 19.2219 12.842 19.2235H12.8391C11.6448 19.2231 10.4714 18.9235 9.42916 18.355L5.64648 19.3473L6.65879 15.6497C6.03435 14.5675 5.70577 13.34 5.70631 12.0824C5.70787 8.14811 8.90889 4.94727 12.842 4.94727C14.7508 4.94809 16.5424 5.6912 17.8896 7.03997C19.2368 8.38868 19.9783 10.1814 19.9776 12.088Z" fill="white"/>
<path fill-rule="evenodd" clip-rule="evenodd" d="M7.35881 17.6524L9.6035 17.0636L9.82007 17.1921C10.7307 17.7324 11.7745 18.0184 12.8387 18.0188H12.8411C16.11 18.0188 18.7705 15.3582 18.7718 12.088C18.7724 10.5032 18.1561 9.01315 17.0364 7.89211C15.9167 6.77106 14.4276 6.15338 12.8434 6.15283C9.57203 6.15283 6.91145 8.81317 6.91016 12.0831C6.9097 13.2038 7.22325 14.2952 7.81694 15.2394L7.95795 15.4638L7.35881 17.6524ZM16.1913 13.6243C16.3156 13.6844 16.3996 13.7249 16.4355 13.7848C16.48 13.8591 16.48 14.2161 16.3315 14.6327C16.1829 15.0491 15.4706 15.4292 15.128 15.4804C14.8209 15.5263 14.4322 15.5455 14.0051 15.4097C13.7461 15.3276 13.414 15.2179 12.9886 15.0342C11.3172 14.3124 10.1876 12.6924 9.97411 12.3862C9.95916 12.3648 9.9487 12.3498 9.94286 12.342L9.94143 12.3401C9.84707 12.2142 9.21484 11.3706 9.21484 10.4976C9.21484 9.67635 9.61826 9.24588 9.80396 9.04774C9.81668 9.03416 9.82838 9.02168 9.83886 9.01023C10.0023 8.83173 10.1955 8.78711 10.3143 8.78711C10.4332 8.78711 10.5521 8.78821 10.656 8.79343C10.6688 8.79407 10.6822 8.79399 10.696 8.79391C10.7999 8.7933 10.9294 8.79254 11.0572 9.09948C11.1063 9.21761 11.1783 9.39274 11.2541 9.57744C11.4076 9.95095 11.5771 10.3636 11.6069 10.4233C11.6515 10.5126 11.6812 10.6167 11.6218 10.7357C11.6128 10.7536 11.6046 10.7704 11.5967 10.7865C11.5521 10.8776 11.5192 10.9447 11.4435 11.0331C11.4137 11.0679 11.3829 11.1054 11.3521 11.1429C11.2908 11.2176 11.2294 11.2923 11.176 11.3455C11.0868 11.4344 10.9938 11.5309 11.0978 11.7094C11.2019 11.8879 11.5597 12.4717 12.0897 12.9445C12.6595 13.4527 13.1547 13.6675 13.4057 13.7764C13.4547 13.7976 13.4944 13.8148 13.5235 13.8294C13.7017 13.9187 13.8058 13.9038 13.9098 13.7848C14.0138 13.6658 14.3555 13.2642 14.4743 13.0857C14.5931 12.9073 14.7121 12.937 14.8755 12.9965C15.0389 13.056 15.9155 13.4873 16.0938 13.5765C16.1286 13.594 16.1611 13.6097 16.1913 13.6243Z" fill="white"/>
</svg>
