<svg width="25" height="25" viewBox="0 0 25 25" fill="none" xmlns="http://www.w3.org/2000/svg">
<path fill-rule="evenodd" clip-rule="evenodd" d="M0.446289 12.5479C0.446289 19.1753 5.81887 24.5479 12.4463 24.5479C19.0737 24.5479 24.4463 19.1753 24.4463 12.5479C24.4463 5.92043 19.0737 0.547852 12.4463 0.547852C5.81887 0.547852 0.446289 5.92043 0.446289 12.5479ZM10.246 18.0481L10.4502 14.9892L10.45 14.9891L16.0145 9.96759C16.2587 9.75085 15.9611 9.64516 15.637 9.84175L8.76965 14.1742L5.80335 13.2484C5.16276 13.0523 5.15816 12.6121 5.94717 12.2956L17.5062 7.83852C18.0341 7.59884 18.5437 7.96532 18.3421 8.77334L16.3736 18.0496C16.2362 18.7088 15.8379 18.8665 15.286 18.562L12.2874 16.3465L10.846 17.7481C10.8415 17.7525 10.8369 17.7569 10.8324 17.7613C10.6712 17.9182 10.5379 18.0481 10.246 18.0481Z" fill="white"/>
</svg>
